<svg width="100" height="100" viewBox="0 0 100 100" fill="none" xmlns="http://www.w3.org/2000/svg">
<path d="M99.7744 82.4223C99.687 82.3416 99.58 82.2853 99.4641 82.2589C99.3481 82.2326 99.2272 82.2372 99.1136 82.2723C93.8849 74.5506 87.2382 67.2254 80.7988 60.1537L79.738 58.993C79.7323 58.8545 79.6793 58.7222 79.588 58.618C79.4814 58.4875 79.3321 58.399 79.1666 58.368L78.9523 58.143L78.8023 58.0322C78.6165 57.6322 78.1415 57.3322 77.6165 57.5965C75.6486 58.6073 73.8771 60.0537 72.1306 61.3895C69.7948 63.1753 67.5126 65.0325 65.3661 67.029C64.4757 67.8279 63.6538 68.7 62.9089 69.6362C62.5589 70.0969 62.8232 70.5326 63.2482 70.7184C61.7243 72.2184 60.1933 73.7744 58.6552 75.3864C58.5849 75.4587 58.5307 75.5451 58.4963 75.6399C58.4618 75.7348 58.4478 75.8358 58.4552 75.9364C58.4627 76.036 58.4911 76.1329 58.5385 76.2209C58.5859 76.3089 58.6512 76.386 58.7302 76.4471L61.4267 78.5043C61.4267 78.5043 61.4374 78.54 61.4624 78.5543C65.3197 82.358 72.0806 87.6368 79.2416 93.2262C80.3035 94.062 81.3714 94.8977 82.4452 95.7335C82.931 96.3216 83.3976 96.9049 83.8453 97.4835C83.9599 97.6329 84.129 97.731 84.3156 97.7564C84.5022 97.7819 84.6913 97.7325 84.8417 97.6192C85.0025 97.7407 85.1632 97.8799 85.3275 98.005C85.4768 98.1206 85.6659 98.1723 85.8533 98.1489C86.0407 98.1255 86.2112 98.0288 86.3275 97.8799C86.4094 97.7673 86.4565 97.6333 86.4632 97.4942C86.5132 97.4942 86.5525 97.5299 86.5882 97.5299C86.6865 97.5306 86.7839 97.5109 86.8742 97.4722C86.9645 97.4335 87.0459 97.3765 87.1132 97.3049L99.8136 83.4331C99.877 83.3646 99.9261 83.2842 99.9579 83.1965C99.9898 83.1088 100.004 83.0157 99.9991 82.9225C99.9945 82.8294 99.9712 82.7381 99.9308 82.654C99.8904 82.5699 99.8335 82.4948 99.7636 82.433L99.7744 82.4223ZM63.3089 77.6186C63.397 77.7305 63.4839 77.8353 63.5696 77.9329C65.0197 79.1543 66.5662 80.4758 68.1376 81.8259L61.7481 76.9471L61.1017 76.4971C60.9697 76.4015 60.8411 76.3015 60.716 76.1971L60.2409 75.7971C60.2409 75.7971 60.3267 75.7114 60.366 75.6614L60.8017 75.2221C62.9446 73.0541 66.6269 69.4362 68.5234 67.6647C66.5162 69.6862 62.4517 75.6114 63.3232 77.6186H63.3089ZM85.1775 94.8477L79.913 90.8297C77.8067 88.6639 75.6268 86.5709 73.3771 84.5545C76.22 86.751 78.6523 88.6082 79.0166 88.9332C81.7738 91.394 81.6488 90.944 83.5453 92.5655L85.8275 94.2227C85.6025 94.4227 85.3775 94.637 85.1667 94.837L85.1775 94.8477ZM86.4989 95.8585L86.4025 95.787L87.0097 95.3084L86.5132 95.8585H86.4989ZM3.00697 14.3951L3.50699 17.0273C4.36416 21.6418 5.16418 25.7991 6.68566 28.9563L7.28568 31.3492C7.5214 32.26 7.85712 33.3957 8.17142 33.635C11.7251 36.778 17.1789 41.4674 23.004 45.8854C23.1308 45.9804 23.2856 46.0306 23.444 46.028C23.6024 46.0254 23.7554 45.9702 23.8791 45.8711C23.8934 45.8949 23.91 45.9116 23.9291 45.9211C24.0582 46.0386 24.226 46.1046 24.4005 46.1069C24.4996 46.1061 24.5974 46.0848 24.6878 46.0442C24.7782 46.0036 24.8591 45.9447 24.9255 45.8711C32.3865 37.5744 37.9367 30.7492 41.8904 25.0347C42.1348 24.7417 42.2643 24.3698 42.2547 23.9883C42.5047 23.6883 42.7654 23.3883 43.0047 23.1418C43.0765 23.0677 43.131 22.9785 43.1641 22.8807C43.1973 22.7829 43.2083 22.679 43.1963 22.5764C43.1843 22.4739 43.1497 22.3753 43.095 22.2878C43.0402 22.2002 42.9667 22.126 42.8797 22.0704C42.8654 21.8982 42.7893 21.7371 42.6654 21.6168C41.2392 20.2411 39.801 18.8779 38.351 17.5274C35.0623 14.4624 31.8295 11.338 28.6542 8.15563L28.5685 8.0842C28.4919 8.00415 28.3978 7.94302 28.2935 7.90562C26.9077 7.41989 24.0648 6.93416 20.4861 6.30914C15.2181 5.41269 8.0107 4.16622 1.52121 2.23044H1.47121V2.21973C1.47121 2.21973 1.44621 2.21973 1.43549 2.24473H1.4212L1.47121 2.21973C1.47121 2.21973 1.08548 2.23044 1.0069 2.26973C0.917352 2.31467 0.838256 2.37794 0.774754 2.45545C0.710467 2.53045 0.660465 2.60545 0.18545 2.70546C-0.285994 2.80546 0.285453 2.70546 0.32474 2.70546H0.18545V2.74117C0.274738 3.16976 0.249738 3.46619 0.385456 3.9555C0.360455 4.07693 0.649751 5.22696 0.685466 5.33768L2.97125 14.3951H3.00697ZM41.6154 22.5525L41.5689 22.6168L40.7689 21.7311C41.0403 21.9858 41.3237 22.2597 41.6189 22.5525H41.6154ZM32.7722 34.2672L32.6472 34.4172L32.6222 34.3922C32.6698 34.3517 32.7234 34.3112 32.7829 34.2708L32.7722 34.2672ZM27.7185 9.19495C28.1578 9.63068 29.89 11.2522 30.29 11.6522C28.4792 10.8271 23.9755 8.73065 21.8826 8.0592C23.9398 8.41635 26.7827 8.88422 27.7185 9.19495ZM3.78914 5.7377C4.83917 7.53418 5.6642 13.8344 6.48565 19.9596C6.02135 17.9881 5.62848 16.0666 5.2499 14.2201C4.60345 11.0272 4.00343 8.16992 3.16769 5.63769C3.34627 5.65198 3.54984 5.67222 3.77842 5.69841C3.77366 5.7127 3.78199 5.7246 3.80342 5.73412L3.78914 5.7377ZM3.43198 4.22693C3.1415 4.19836 2.88316 4.17812 2.65696 4.16622C2.63315 4.11622 2.61648 4.06621 2.60696 4.01621L3.42841 4.24122L3.43198 4.22693ZM98.6422 3.31619C98.6922 3.03047 97.2707 1.76971 97.7172 1.74471C98.7779 1.69471 98.7886 0.0625131 97.7172 0.108943C96.31 0.183946 94.8849 0.508956 93.5134 0.773251C91.0467 1.23755 88.5847 1.73995 86.1275 2.28044C80.6449 3.42353 75.1951 4.71812 69.7841 6.16271C68.0876 6.62344 66.2161 7.03417 64.6589 7.85919C64.1339 8.13063 64.1589 8.69493 64.4447 9.04137C64.3366 9.09899 64.2194 9.13765 64.0982 9.15566C63.6339 9.239 63.172 9.31757 62.7125 9.39138C62.5976 9.41025 62.4892 9.45716 62.3969 9.52795C62.3045 9.59874 62.2311 9.69123 62.183 9.79721C62.135 9.90319 62.1138 10.0194 62.1215 10.1355C62.1291 10.2516 62.1652 10.3641 62.2267 10.4628C59.3338 14.3344 56.0372 18.4988 52.4693 22.8775C48.8149 27.0713 45.1885 31.2894 41.5903 35.5315C29.8507 49.3284 16.5395 64.9717 1.79264 78.7472C1.65795 78.8758 1.57883 79.052 1.57216 79.2382C1.56549 79.4243 1.63179 79.6057 1.75693 79.7436C1.8239 79.8125 1.90407 79.8672 1.99265 79.9044L1.39263 80.4544C1.28024 80.5595 1.20927 80.7014 1.19263 80.8544L0.906902 81.1651C0.78068 81.3033 0.713708 81.4854 0.720387 81.6724C0.727066 81.8594 0.806862 82.0364 0.942617 82.1652C1.08076 82.2914 1.26292 82.3583 1.44993 82.3517C1.63694 82.345 1.81386 82.2652 1.94265 82.1294L2.09265 81.9652C2.19047 81.8616 2.30839 81.7791 2.4392 81.7227C2.57001 81.6663 2.71095 81.6373 2.85339 81.6373C2.99583 81.6373 3.13678 81.6663 3.26759 81.7227C3.3984 81.7791 3.51632 81.8616 3.61413 81.9652L6.04635 84.5724L4.32487 83.1366C4.1804 83.0165 3.99444 82.9582 3.80726 82.9742C3.62008 82.9903 3.44676 83.0794 3.32484 83.2223C3.20517 83.3672 3.14744 83.5535 3.16415 83.7407C3.18086 83.9279 3.27068 84.1009 3.41413 84.2224L21.904 99.73C22.0416 99.8428 22.2164 99.9002 22.3941 99.891C22.5718 99.8817 22.7396 99.8065 22.8647 99.68L23.3148 99.23C23.4458 99.2862 23.5906 99.302 23.7306 99.2753C23.8706 99.2486 23.9995 99.1805 24.1005 99.08C49.162 73.9042 69.3484 54.8786 92.467 37.8744C92.5649 37.8017 92.6426 37.7051 92.6926 37.5938C92.7427 37.4825 92.7633 37.3603 92.7527 37.2387C92.8887 37.2237 93.0176 37.17 93.124 37.0839C93.2304 36.9978 93.3098 36.8829 93.3527 36.753C97.6171 23.7026 98.4422 12.1486 98.6922 6.47343L98.7172 6.38772C98.741 6.32343 98.7577 6.2639 98.7672 6.20914L98.8279 5.97699C98.9813 5.54084 99.044 5.07794 99.0121 4.61669C98.9801 4.15545 98.8543 3.7056 98.6422 3.29476V3.31619ZM53.8265 23.7383C54.9479 22.4525 56.0587 21.1965 57.1587 19.9703C49.9728 29.4277 38.0688 43.9996 21.2183 61.3145C32.6936 48.6176 44.2583 35.4529 53.8265 23.7383ZM13.218 89.6225L13.1823 89.5868L13.4323 89.6368C13.3613 89.626 13.289 89.626 13.218 89.6368V89.6225ZM21.8254 97.6335L21.7647 97.5835L21.8004 97.5478C21.8254 97.5478 21.8361 97.5692 21.8504 97.5692C21.8504 97.5942 21.8254 97.6049 21.8147 97.6335H21.8254ZM32.2543 88.6368L33.9758 86.8403L34.0115 86.9046C33.4294 87.476 32.8401 88.0653 32.2436 88.6368H32.2543ZM35.0509 85.8796L36.1366 84.6081C36.1461 84.5938 36.1628 84.5771 36.1866 84.5581C40.3652 80.2431 44.5978 75.9807 48.8834 71.772L48.9727 71.697L52.3657 69.1004C46.5578 74.6607 40.7861 80.2586 35.0509 85.8938V85.8796ZM62.0589 16.1666C59.7374 19.1881 57.1944 23.1025 55.0372 26.2384C48.2227 36.103 26.2934 60.268 25.8041 60.7288C22.4254 64.0003 12.2323 73.7792 5.73206 79.9079C5.57824 80.0408 5.43606 80.1866 5.30704 80.3437C5.21571 80.2492 5.1441 80.1376 5.09638 80.0152C5.04866 79.8928 5.0258 79.7621 5.02913 79.6308C5.03245 79.4995 5.0619 79.3701 5.11574 79.2503C5.16959 79.1305 5.24676 79.0226 5.34276 78.9329C36.308 49.7391 55.0944 25.424 62.7339 14.8344C62.5696 15.2451 62.4339 15.6916 62.0482 16.1916L62.0589 16.1666ZM82.656 25.024L82.6452 25.049C82.6452 25.024 82.6202 24.9633 82.656 25.024ZM74.1735 30.4171C71.352 28.7813 70.0306 26.3348 70.7913 23.8668L71.0306 23.0454C71.1282 22.8073 71.2449 22.5692 71.3806 22.3311C72.1163 21.1096 73.2378 20.0239 74.5236 19.3881C74.5855 19.3643 74.6474 19.3477 74.7093 19.3381C74.6473 19.1667 74.6301 18.9823 74.6593 18.8024C74.7236 18.4131 74.9736 18.0774 75.4807 18.0774C76.32 18.0774 78.913 18.8488 79.8987 19.6989C80.2011 19.937 80.4845 20.1989 80.7488 20.4846C81.1238 20.9203 81.6702 21.6311 81.9452 22.1454C82.1095 22.2168 82.2309 22.9168 82.4202 23.2775C82.594 23.8538 82.6691 24.4371 82.6452 25.0276C82.6452 25.049 82.6452 25.049 82.656 25.0633C82.6202 25.149 82.656 25.5276 82.6059 25.5633C82.4809 26.4598 82.1559 27.3491 81.6702 28.1206L81.5345 28.3206C81.5345 28.3313 81.5095 28.3456 81.4988 28.3706C81.1327 28.9135 80.676 29.3895 80.1487 29.7778C78.5772 30.8885 76.7451 31.2278 74.9093 30.7635C74.6657 30.673 74.4272 30.5693 74.195 30.4528L74.1735 30.4171ZM94.4706 28.3813C93.8599 30.9385 93.1134 33.61 92.2241 36.3423C92.1884 36.4423 92.1884 36.5387 92.1884 36.628C92.0667 36.6436 91.9511 36.6904 91.8527 36.7637C86.3407 40.8214 80.9397 45.0278 75.6557 49.3784C80.2826 45.1913 84.9533 41.0529 89.6669 36.9637C91.0541 35.7575 91.9837 34.1103 92.2991 32.2993L92.9991 28.092L93.0349 27.967C93.3492 27.0812 94.7063 27.467 94.4956 28.3813H94.4706Z" fill="#6965DB"/>
</svg>
