<svg width="24" height="24" viewBox="0 0 24 24" fill="none" xmlns="http://www.w3.org/2000/svg">
<g clip-path="url(#clip0_504_62)">
<path d="M9.95784 15.4329C10.4138 14.9591 10.8729 14.7166 11.3353 14.7053C11.0719 14.972 10.8953 15.2401 10.8055 15.5098C10.7157 15.7795 10.6761 16.1334 10.6868 16.5717C10.6917 16.774 10.7843 17.0645 10.9646 17.4433C11.145 17.822 11.3254 18.1562 11.5059 18.4457C11.6865 18.7353 11.7766 18.8729 11.7762 18.8584C11.7847 18.81 11.7964 18.7471 11.8114 18.6696C11.8264 18.5922 11.8661 18.4442 11.9307 18.2258C11.9953 18.0073 12.0686 17.8031 12.1507 17.6132C12.2328 17.4232 12.3496 17.2228 12.5011 17.0119C12.6526 16.8009 12.8185 16.6355 12.9987 16.5154C13.1456 16.4154 13.2212 16.2534 13.2254 16.0292C13.2296 15.805 13.183 15.5748 13.0857 15.3386C12.9884 15.1024 12.8673 14.8801 12.7224 14.6715C12.9825 14.6652 13.4132 14.9342 14.0144 15.4786C14.2163 15.6568 14.3671 15.8604 14.4666 16.0893C14.5662 16.3182 14.6182 16.5241 14.6226 16.7072C14.6301 17.0154 14.5525 17.339 14.3896 17.6779C14.2268 18.0168 14.004 18.3174 13.7212 18.5797C13.481 18.8073 13.288 19.0457 13.1423 19.295C12.9966 19.5444 12.9047 19.7791 12.8667 19.9993C12.8287 20.2196 12.8159 20.4355 12.8282 20.6473C12.8406 20.859 12.8778 21.0485 12.9397 21.2156C13.0016 21.3828 13.063 21.5307 13.124 21.6593C13.1849 21.788 13.2403 21.8854 13.2901 21.9517L13.365 22.0583C13.3018 22.0357 13.2179 22.0016 13.1131 21.956C13.0084 21.9104 12.8059 21.8093 12.5057 21.6527C12.2055 21.4962 11.9208 21.332 11.6516 21.1603C11.3823 20.9885 11.0877 20.7656 10.7678 20.4914C10.4479 20.2173 10.1832 19.9358 9.97375 19.6469C9.68454 19.2492 9.46071 18.8148 9.30225 18.344C9.14379 17.8732 9.06721 17.4497 9.07251 17.0737C9.07745 16.8808 9.14201 16.6624 9.26619 16.4184C9.39036 16.1744 9.51087 15.9775 9.6277 15.8276C9.74453 15.6778 9.85458 15.5462 9.95784 15.4329Z" fill="#6A6C6E"/>
</g>
<path d="M12.91 13.8782V16.1969H11.055V14.8057H10.5913C10.2223 14.8057 9.86845 14.6591 9.60754 14.3982C9.34663 14.1373 9.20006 13.7834 9.20006 13.4145V12.0232C9.20006 11.9002 9.24892 11.7823 9.33589 11.6953C9.42286 11.6083 9.54081 11.5595 9.66381 11.5595C9.7868 11.5595 9.90475 11.6083 9.99172 11.6953C10.0787 11.7823 10.1276 11.9002 10.1276 12.0232V13.4145C10.1276 13.6742 10.3362 13.8782 10.5913 13.8782H11.055V9.24073C11.055 8.99474 11.1528 8.75883 11.3267 8.58489C11.5006 8.41095 11.7366 8.31323 11.9825 8.31323C12.2285 8.31323 12.4644 8.41095 12.6384 8.58489C12.8123 8.75883 12.91 8.99474 12.91 9.24073V12.9507H13.3738C13.4968 12.9507 13.6147 12.9018 13.7017 12.8149C13.7887 12.7279 13.8375 12.61 13.8375 12.487V11.5595C13.8375 11.4365 13.8864 11.3185 13.9734 11.2315C14.0603 11.1446 14.1783 11.0957 14.3013 11.0957C14.4243 11.0957 14.5422 11.1446 14.6292 11.2315C14.7162 11.3185 14.765 11.4365 14.765 11.5595V12.487C14.765 12.8559 14.6184 13.2098 14.3575 13.4707C14.0966 13.7316 13.7428 13.8782 13.3738 13.8782H12.91Z" fill="#6A6C6E"/>
<path d="M13.3239 7.23454C13.3576 7.23454 13.3903 7.2291 13.4197 7.21821L13.3718 7.55231H13.0856L13.2542 7.22692C13.2771 7.23236 13.2999 7.23454 13.3239 7.23454ZM8.74231 4.06552C8.87943 4.06552 9.0122 4.08184 9.13952 4.11123C9.37241 3.69333 9.81751 3.41148 10.329 3.41148C10.4041 3.41148 10.477 3.418 10.5488 3.42889C10.9341 2.58657 11.7829 2.00218 12.7678 2.00218C13.9899 2.00218 15.002 2.90108 15.1794 4.07423C16.062 4.1602 16.7508 4.90348 16.7508 5.80891C16.7508 6.77094 15.9716 7.55122 15.0096 7.55231H14.4655L14.3218 7.25195C14.6069 7.16162 14.793 6.93635 14.7473 6.72088C14.6973 6.48581 14.3904 6.35196 14.0606 6.42161C13.8114 6.47493 13.621 6.62946 13.5655 6.80359C13.5402 6.76252 13.5048 6.72858 13.4627 6.70497C13.4206 6.68136 13.3732 6.66885 13.325 6.66864H13.3228C13.3315 6.63382 13.3359 6.5979 13.3359 6.5609C13.3359 6.34216 13.1748 6.16151 12.9648 6.12995V5.85353C12.9648 5.80565 12.9256 5.76647 12.8777 5.76647C12.8298 5.76647 12.7906 5.80565 12.7906 5.85353V6.13975C12.7406 6.15281 12.6949 6.17457 12.6535 6.20287L12.4413 5.96998C12.4087 5.93406 12.3542 5.93189 12.3183 5.96454C12.2824 5.99718 12.2802 6.0516 12.3129 6.08751L12.5305 6.32693L12.5327 6.3291C12.4844 6.40538 12.461 6.49481 12.4657 6.58498C12.4705 6.67516 12.5031 6.76163 12.5592 6.83242C12.6153 6.9032 12.692 6.95479 12.7787 6.98004C12.8654 7.00529 12.9578 7.00296 13.0431 6.97335C13.0475 7.0343 13.0714 7.0898 13.1084 7.13442L12.8908 7.55231H8.69769V7.55122C7.75634 7.52728 7 6.75679 7 5.80891C7 4.8458 7.78028 4.06552 8.74231 4.06552ZM13.7668 7.22583L13.8136 7.55231H13.5481L13.6123 7.10068C13.6504 7.15074 13.7026 7.19318 13.7668 7.22583ZM8.76843 2.52237C8.76843 2.66091 8.71339 2.79377 8.61543 2.89173C8.51747 2.9897 8.3846 3.04473 8.24606 3.04473C8.10752 3.04473 7.97466 2.9897 7.87669 2.89173C7.77873 2.79377 7.7237 2.66091 7.7237 2.52237C7.7237 2.38383 7.77873 2.25096 7.87669 2.153C7.97466 2.05503 8.10752 2 8.24606 2C8.3846 2 8.51747 2.05503 8.61543 2.153C8.71339 2.25096 8.76843 2.38383 8.76843 2.52237ZM9.48341 3.18947C9.48341 3.22377 9.47666 3.25773 9.46353 3.28942C9.45041 3.32111 9.43117 3.3499 9.40692 3.37415C9.38266 3.39841 9.35387 3.41765 9.32218 3.43077C9.29049 3.4439 9.25653 3.45065 9.22223 3.45065C9.18793 3.45065 9.15397 3.4439 9.12228 3.43077C9.09059 3.41765 9.0618 3.39841 9.03755 3.37415C9.01329 3.3499 8.99406 3.32111 8.98093 3.28942C8.9678 3.25773 8.96105 3.22377 8.96105 3.18947C8.96105 3.15517 8.9678 3.12121 8.98093 3.08952C8.99406 3.05783 9.01329 3.02904 9.03755 3.00479C9.0618 2.98053 9.09059 2.96129 9.12228 2.94817C9.15397 2.93504 9.18793 2.92829 9.22223 2.92829C9.25653 2.92829 9.29049 2.93504 9.32218 2.94817C9.35387 2.96129 9.38266 2.98053 9.40692 3.00479C9.43117 3.02904 9.45041 3.05783 9.46353 3.08952C9.47666 3.12121 9.48341 3.15517 9.48341 3.18947ZM14.1455 7.28786L14.2718 7.55231H13.9888L13.9507 7.28351C14.0128 7.29222 14.0781 7.29439 14.1455 7.28786Z" fill="#6A6C6E"/>
<path d="M23.25 12C23.25 18.2132 18.2132 23.25 12 23.25C5.7868 23.25 0.75 18.2132 0.75 12C0.75 5.7868 5.7868 0.75 12 0.75C18.2132 0.75 23.25 5.7868 23.25 12Z" stroke="#6A6C6E" stroke-width="1.5"/>
<defs>
<clipPath id="clip0_504_62">
<rect width="5.56497" height="7.40022" fill="white" transform="translate(14.7523 22.0245) rotate(178.605)"/>
</clipPath>
</defs>
</svg>
