<svg width="101" height="100" viewBox="0 0 101 100" fill="none" xmlns="http://www.w3.org/2000/svg">
<path d="M70.6218 89.7458C70.0407 94.0035 65.861 97.3248 61.681 96.1881C55.7804 94.5606 48.9406 92.0195 42.7496 91.5514L33.2948 90.8379C31.7688 90.7273 30.3369 90.0609 29.2715 88.9657L12.955 72.2474C12.0799 71.3505 11.4966 70.211 11.2813 68.9781C11.0659 67.7452 11.2286 66.4762 11.7481 65.337C11.7481 65.337 21.8284 43.2692 22.2084 42.1101C22.5884 40.9734 23.9521 30.9647 24.7565 25.5703C24.9771 24.1418 25.6882 22.8339 26.7681 21.87L46.0352 4.59462C46.6714 4.02794 47.417 3.59696 48.2263 3.32814C49.0356 3.05932 49.8915 2.95834 50.7413 3.03139C51.5911 3.10445 52.417 3.35001 53.1683 3.75298C53.9195 4.15596 54.5801 4.70784 55.1097 5.37473L71.3147 25.8823C72.2195 27.0501 72.7072 28.4859 72.7003 29.9616C72.7003 33.8403 73.0359 41.8205 75.1815 46.9695C77.3311 51.6023 80.0005 55.9771 83.1387 60.0099C83.5266 60.5014 83.7575 61.0979 83.8013 61.7219C83.8452 62.3459 83.6999 62.9686 83.3844 63.5093C81.9537 65.9169 79.1601 70.5088 75.1815 76.4158C72.6861 80.4654 71.1283 85.0195 70.6218 89.7458Z" fill="#6C31E3"/>
<path d="M31.0149 90.2138C38.5921 74.9001 38.3907 63.9107 35.15 56.1087C32.1997 48.8866 26.6788 44.3392 22.3427 41.5084C22.256 41.9239 22.1209 42.3278 21.9402 42.712L11.7481 65.337C11.2314 66.4784 11.0723 67.7489 11.2916 68.9819C11.5109 70.215 12.0984 71.3532 12.9772 72.2477L29.2715 88.9657C29.7824 89.4715 30.3709 89.8929 31.0149 90.2138Z" fill="url(#paint0_radial_2510_49)"/>
<path d="M51.6229 59.1404C53.6691 59.3407 55.6818 59.7976 57.6134 60.5C63.8269 62.8183 69.4817 68.0345 74.1532 78.0878C74.4886 77.5082 74.8237 76.9508 75.1815 76.4158C78.0363 72.191 80.7717 67.8871 83.3844 63.5093C83.703 62.9708 83.852 62.3493 83.8121 61.7253C83.7723 61.1013 83.5454 60.5037 83.1609 60.0099C80.0149 55.9781 77.338 51.6034 75.1815 46.9695C73.0356 41.8426 72.7228 33.8403 72.7003 29.9616C72.7003 28.4905 72.2309 27.0414 71.3147 25.8823L55.1097 5.37473L54.8414 5.04055C56.0262 8.94111 55.9593 12.0621 55.2215 14.8929C54.551 17.5232 53.2995 19.9084 51.9805 22.4274C51.5336 23.2745 51.0864 24.1437 50.6618 25.0353C48.5597 29.039 47.3548 33.4503 47.1303 37.9641C46.9068 43.3586 48.0019 50.1126 51.6007 59.1407L51.6229 59.1404Z" fill="url(#paint1_radial_2510_49)"/>
<path d="M51.6007 59.1407C48.0019 50.1126 46.9068 43.3586 47.1303 37.9641C47.3539 32.6146 48.9184 28.6019 50.6618 25.0353L52.003 22.4274C53.2995 19.9084 54.5288 17.5232 55.2215 14.8929C56.0441 11.6403 55.9122 8.22051 54.8414 5.04055C52.5272 2.50447 48.5953 2.30534 46.0352 4.59462L26.7681 21.87C25.6882 22.8339 24.9771 24.1418 24.7565 25.5703L22.4101 41.0846C22.4101 41.2406 22.3651 41.3745 22.3429 41.5306C26.6791 44.3392 32.1775 48.8866 35.1502 56.0866C35.7314 57.5132 36.2232 59.0068 36.5807 60.634C41.4652 59.2834 46.5443 58.7708 51.601 59.1183L51.6007 59.1407Z" fill="url(#paint2_radial_2510_49)"/>
<path d="M61.7035 96.1881C65.861 97.3248 70.0407 94.0035 70.6218 89.7233C71.0976 85.6637 72.3014 81.7225 74.1757 78.0877C69.4817 68.0342 63.8269 62.8182 57.6356 60.5C51.0421 58.0482 43.8674 58.8729 36.5807 60.634C38.2123 68.0124 37.2509 77.6642 31.0374 90.2138C31.7303 90.5704 32.5125 90.7713 33.2948 90.8379L43.1071 91.5735C48.4266 91.9525 56.3615 94.6945 61.7035 96.1881Z" fill="url(#paint3_radial_2510_49)"/>
<path d="M47.175 37.6297C46.9292 42.9796 47.5997 49.0874 51.1982 58.0928L50.0806 57.9813C46.8396 48.5969 46.1245 43.7821 46.3703 38.3653C46.5939 32.9487 48.3597 28.7801 50.1031 25.2137C50.55 24.3221 51.5782 22.6501 52.0254 21.8031C53.3216 19.2843 54.1935 17.9692 54.931 15.6731C56.004 12.4633 55.7804 10.9476 55.6461 9.43188C56.4733 14.893 53.3216 19.6409 50.9525 24.4781C48.7588 28.5411 47.4631 33.0255 47.1528 37.6297H47.175Z" fill="url(#paint4_radial_2510_49)"/>
<path d="M36.2229 56.4877C36.6698 57.4687 37.0498 58.2712 37.318 59.497L36.3569 59.7199C35.9768 58.2933 35.6864 57.2681 35.1275 56.0421C31.8643 48.3961 26.6339 44.4507 22.387 41.5529C27.5282 44.3171 32.8257 48.6636 36.2229 56.4877Z" fill="url(#paint5_radial_2510_49)"/>
<path d="M37.3627 60.4779C39.1507 68.8371 37.1391 79.4696 31.216 89.8127C36.1782 79.5589 38.5921 69.7284 36.5804 60.6115L37.3627 60.4555V60.4779Z" fill="url(#paint6_radial_2510_49)"/>
<path d="M57.8367 59.6978C67.5594 63.3312 71.3147 71.2889 74.1086 77.9539C70.644 70.9993 65.8385 63.3088 57.4792 60.4555C51.1311 58.2712 45.767 58.5384 36.5804 60.6115L36.3793 59.72C46.1245 57.4908 51.2207 57.2236 57.8367 59.72V59.6978Z" fill="url(#paint7_radial_2510_49)"/>
<defs>
<radialGradient id="paint0_radial_2510_49" cx="0" cy="0" r="1" gradientUnits="userSpaceOnUse" gradientTransform="translate(31084 79.4214) rotate(-115.027) scale(9366.77 28641.8)">
<stop stop-color="white" stop-opacity="0.4"/>
<stop offset="1" stop-opacity="0.1"/>
</radialGradient>
<radialGradient id="paint1_radial_2510_49" cx="0" cy="0" r="1" gradientUnits="userSpaceOnUse" gradientTransform="translate(25729.3 2716.25) rotate(-74.3381) scale(9813.72 36925.1)">
<stop stop-color="white" stop-opacity="0.6"/>
<stop offset="1" stop-color="white" stop-opacity="0.1"/>
</radialGradient>
<radialGradient id="paint2_radial_2510_49" cx="0" cy="0" r="1" gradientUnits="userSpaceOnUse" gradientTransform="translate(24122.7 5553.29) rotate(-68.232) scale(10840.5 29462.4)">
<stop stop-color="white" stop-opacity="0.8"/>
<stop offset="1" stop-color="white" stop-opacity="0.4"/>
</radialGradient>
<radialGradient id="paint3_radial_2510_49" cx="0" cy="0" r="1" gradientUnits="userSpaceOnUse" gradientTransform="translate(7181.6 1.68671e+07) scale(9208.6)">
<stop stop-color="white" stop-opacity="0.3"/>
<stop offset="1" stop-opacity="0.3"/>
</radialGradient>
<radialGradient id="paint4_radial_2510_49" cx="0" cy="0" r="1" gradientUnits="userSpaceOnUse" gradientTransform="translate(-24151.2 2122.63) rotate(137.646) scale(9248.57 116843)">
<stop stop-color="white" stop-opacity="0"/>
<stop offset="1" stop-color="white" stop-opacity="0.2"/>
</radialGradient>
<radialGradient id="paint5_radial_2510_49" cx="0" cy="0" r="1" gradientUnits="userSpaceOnUse" gradientTransform="translate(-689.276 -1797.3) rotate(39.3397) scale(14033.5 16788.3)">
<stop stop-color="white" stop-opacity="0.2"/>
<stop offset="1" stop-color="white" stop-opacity="0.4"/>
</radialGradient>
<radialGradient id="paint6_radial_2510_49" cx="0" cy="0" r="1" gradientUnits="userSpaceOnUse" gradientTransform="translate(23240.3 -1699.38) rotate(52.5483) scale(11273.2 138243)">
<stop stop-color="white" stop-opacity="0.1"/>
<stop offset="1" stop-color="white" stop-opacity="0.3"/>
</radialGradient>
<radialGradient id="paint7_radial_2510_49" cx="0" cy="0" r="1" gradientUnits="userSpaceOnUse" gradientTransform="translate(3784.7 -1.10001e+07) scale(7690.12 4077.99)">
<stop stop-color="white" stop-opacity="0.2"/>
<stop offset="0.5" stop-color="white" stop-opacity="0.2"/>
<stop offset="1" stop-color="white" stop-opacity="0.3"/>
</radialGradient>
</defs>
</svg>
