<svg width="100" height="100" viewBox="0 0 100 100" fill="none" xmlns="http://www.w3.org/2000/svg">
<path d="M52.2629 0C62.9766 2.97969 72.7379 10.4883 76.7852 19.666C82.975 34.5645 81.5469 53.3965 74.7617 64.6004C69.0476 73.7777 60.2387 78.6645 50.1203 78.5453C34.407 78.4262 21.6699 65.9113 21.5508 50.1781C21.5508 34.4453 33.9309 21.4539 50.1203 21.4539C52.7391 21.4539 56.5152 21.8172 60.8008 23.6051C60.8008 23.6051 57.7199 21.7801 49.8074 20.5543C27.0711 17.5746 0.242962 34.8031 6.43281 74.493C15.0039 89.7488 31.4312 100.119 50.1203 99.9988C77.6184 99.8801 100.117 77.3535 99.9984 49.702C99.9984 23.2414 78.4516 0.714844 52.2629 0Z" fill="url(#paint0_linear_2509_36)"/>
<path d="M70.9516 21.0953C67.1422 13.1098 59.2856 6.79258 49.6434 4.28945C47.5008 3.69375 45.2391 3.45508 42.7391 3.33633C39.0488 3.33633 35.4777 3.81289 31.7875 4.76601C22.6215 7.50781 16.1938 12.8715 12.384 17.0426C7.50391 22.6445 4.28946 28.4848 2.38477 34.325C2.38477 34.4441 2.26563 34.5633 2.26563 34.8016C2.14688 35.2785 1.67071 36.709 1.67071 37.0664C1.55157 37.3047 1.55157 37.6625 1.43243 37.9008L1.0754 39.3309C1.0754 39.4504 1.0754 39.5691 0.956255 39.6887C-2.13867 55.0637 3.00313 68.8617 6.09805 73.9867C6.87227 75.2688 7.50782 76.3383 8.14493 77.3195C1.12149 39.1789 21.3121 20.9758 44.2867 20.4992C56.3098 20.2609 68.3324 25.1477 74.1656 34.9211C73.8082 29.5578 73.4512 26.5777 70.9516 21.0953Z" fill="url(#paint1_linear_2509_36)"/>
<defs>
<linearGradient id="paint0_linear_2509_36" x1="6367.59" y1="-2600.4" x2="-1964.39" y2="1890.52" gradientUnits="userSpaceOnUse">
<stop stop-color="#FF7BFF"/>
<stop offset="0.35016" stop-color="#AA00FF"/>
<stop offset="1" stop-color="#8800CC"/>
</linearGradient>
<linearGradient id="paint1_linear_2509_36" x1="2689.17" y1="-1429.2" x2="8274.32" y2="3346.02" gradientUnits="userSpaceOnUse">
<stop offset="0.03544" stop-color="#FF7BFF"/>
<stop offset="0.57654" stop-color="#8800CC"/>
<stop offset="1" stop-color="#311B92"/>
</linearGradient>
</defs>
</svg>
